HIERARCHY
ROOT joint_Root
{
	OFFSET 0.0 0.0 0.0
	CHANNELS 6 Xposition Yposition Zposition Zrotation Xrotation Yrotation 
	JOINT Hips
	{
		OFFSET -0.726466 93.3139 -2.00062
		CHANNELS 6 Xposition Yposition Zposition Zrotation Xrotation Yrotation 
		JOINT Spine
		{
			OFFSET 15.7357 0.0 0.0
			CHANNELS 6 Xposition Yposition Zposition Zrotation Xrotation Yrotation 
			JOINT Chest
			{
				OFFSET 8.98455 -0.406207 0.0
				CHANNELS 6 Xposition Yposition Zposition Zrotation Xrotation Yrotation 
				JOINT Neck
				{
					OFFSET 16.3773 0.0 0.0
					CHANNELS 6 Xposition Yposition Zposition Zrotation Xrotation Yrotation 
					JOINT Head
					{
						OFFSET 6.45672 0.0 0.0
						CHANNELS 6 Xposition Yposition Zposition Zrotation Xrotation Yrotation 
						End Site
						{
							OFFSET 0.0 0.0 0.0
						}
					}
				}
				JOINT Shoulder_L
				{
					OFFSET 12.9942 -0.242716 4.98039
					CHANNELS 6 Xposition Yposition Zposition Zrotation Xrotation Yrotation 
					JOINT UpperArm_L
					{
						OFFSET 5.34809 0.0 0.0
						CHANNELS 6 Xposition Yposition Zposition Zrotation Xrotation Yrotation 
						JOINT LowerArm_L
						{
							OFFSET 24.3286 1.87007e-05 0.0
							CHANNELS 6 Xposition Yposition Zposition Zrotation Xrotation Yrotation 
							JOINT Hand_L
							{
								OFFSET 22.2916 0.0 0.0
								CHANNELS 6 Xposition Yposition Zposition Zrotation Xrotation Yrotation 
								End Site
								{
									OFFSET 0.0 0.0 0.0
								}
							}
						}
					}
				}
				JOINT Shoulder_R
				{
					OFFSET 12.9945 -0.242716 -4.98039
					CHANNELS 6 Xposition Yposition Zposition Zrotation Xrotation Yrotation 
					JOINT UpperArm_R
					{
						OFFSET -5.34813 0.0 0.0
						CHANNELS 6 Xposition Yposition Zposition Zrotation Xrotation Yrotation 
						JOINT LowerArm_R
						{
							OFFSET -24.3289 0.000322201 0.0
							CHANNELS 6 Xposition Yposition Zposition Zrotation Xrotation Yrotation 
							JOINT Hand_R
							{
								OFFSET -22.2915 -0.000108084 0.0
								CHANNELS 6 Xposition Yposition Zposition Zrotation Xrotation Yrotation 
								End Site
								{
									OFFSET 0.0 0.0 0.0
								}
							}
						}
					}
				}
			}
		}
		JOINT UpperLeg_L
		{
			OFFSET -2.19248 -6.46944 0.0
			CHANNELS 6 Xposition Yposition Zposition Zrotation Xrotation Yrotation 
			JOINT LowerLeg_L
			{
				OFFSET 39.0811 0.0 -1.23785e-05
				CHANNELS 6 Xposition Yposition Zposition Zrotation Xrotation Yrotation 
				JOINT Foot_L
				{
					OFFSET 40.9854 0.0 -1.26872e-05
					CHANNELS 6 Xposition Yposition Zposition Zrotation Xrotation Yrotation 
					JOINT Toes_L
					{
						OFFSET 11.7543 0.0 0.0
						CHANNELS 6 Xposition Yposition Zposition Zrotation Xrotation Yrotation 
						End Site
						{
							OFFSET 0.0 0.0 0.0
						}
					}
				}
			}
		}
		JOINT UpperLeg_R
		{
			OFFSET -2.19251 6.46944 0.0
			CHANNELS 6 Xposition Yposition Zposition Zrotation Xrotation Yrotation 
			JOINT LowerLeg_R
			{
				OFFSET -39.0811 -0.00228153 -0.0401928
				CHANNELS 6 Xposition Yposition Zposition Zrotation Xrotation Yrotation 
				JOINT Foot_R
				{
					OFFSET -40.9854 0.0 0.0
					CHANNELS 6 Xposition Yposition Zposition Zrotation Xrotation Yrotation 
					JOINT Toes_R
					{
						OFFSET -11.7543 0.0 0.0
						CHANNELS 6 Xposition Yposition Zposition Zrotation Xrotation Yrotation 
						End Site
						{
							OFFSET 0.0 0.0 0.0
						}
					}
				}
			}
		}
	}
}
MOTION
Frames:	5
Frame Time:	0.0333333
0.000000 0.000000 0.000000 0.000000 0.000000 -0.000000 0.190150 94.389800 -21.505700 85.392600 -11.955300 -6.906570 15.735700 0.000005 -0.000001 121.606000 80.533700 -121.487000 8.984550 -0.406207 -0.000000 8.441670 9.876520 -0.492966 16.377300 -0.000001 -0.000001 6.207470 1.062610 0.215768 6.456720 -0.000001 -0.000000 -1.286860 -3.945420 -1.407680 12.994200 -0.242716 4.980390 -85.829500 -7.573010 -61.045300 5.348090 -0.000007 -0.000001 -69.136000 26.020700 19.341900 24.328600 0.000019 0.000005 -9.174090 -6.025120 -56.979600 22.291600 -0.000001 0.000005 -4.258050 5.589610 -10.739800 12.994500 -0.242716 -4.980390 90.940400 -2.477730 -69.207600 -5.348130 -0.000001 -0.000004 -39.892900 25.111300 -34.744300 -24.328900 0.000322 -0.000009 -12.287800 -4.514930 -70.127400 -22.291500 -0.000108 -0.000004 -0.068058 5.542920 -8.375890 -2.192480 -6.469440 -0.000000 -177.935000 -8.063620 -27.400300 39.081100 -0.000007 -0.000012 0.007898 -0.020570 21.006000 40.985400 -0.000006 -0.000013 3.399360 -3.633330 -63.931500 11.754300 -0.000000 0.000003 -0.005304 -0.064385 -19.196700 -2.192510 6.469440 -0.000001 174.375000 13.427900 -172.319000 -39.081100 -0.002282 -0.040193 0.103271 -0.214151 25.021800 -40.985400 0.000008 0.000006 -5.649770 12.898400 -29.174800 -11.754300 -0.000006 -0.000006 -0.025619 -0.196631 -24.619000
0.000000 0.000000 0.000000 0.000000 0.000000 -0.000000 -0.051591 94.115300 -12.418500 82.483600 -13.904500 -7.181860 15.735700 0.000005 -0.000001 126.951000 80.234600 -126.248000 8.984550 -0.406207 -0.000000 7.894030 11.692200 0.597057 16.377300 -0.000001 -0.000001 6.216740 1.385290 0.017282 6.456720 -0.000001 -0.000000 -0.751191 -4.300980 -0.778920 12.994200 -0.242716 4.980390 -85.203700 -8.301590 -59.837200 5.348090 -0.000007 -0.000001 -69.772300 24.733700 19.263100 24.328600 0.000019 0.000005 -8.048880 -4.914840 -58.791000 22.291600 -0.000001 0.000005 -3.348420 5.591150 -10.824900 12.994500 -0.242716 -4.980390 91.030700 -2.742490 -69.393300 -5.348130 -0.000001 -0.000004 -41.198000 26.453200 -33.093300 -24.328900 0.000322 -0.000009 -12.104400 -4.806850 -68.655300 -22.291500 -0.000108 -0.000004 0.155461 5.543710 -8.412420 -2.192480 -6.469440 -0.000000 -173.399000 -7.423770 -22.406300 39.081100 -0.000007 -0.000012 -0.001086 0.012766 4.859430 40.985400 -0.000006 -0.000013 1.282540 -8.034520 -64.970800 11.754300 -0.000000 0.000003 -0.006095 -0.071709 -19.495300 -2.192510 6.469440 -0.000001 173.639000 14.001900 -170.034000 -39.081100 -0.002282 -0.040193 0.137313 -0.242411 28.934700 -40.985400 0.000008 0.000006 -6.251040 8.256970 -29.782100 -11.754300 -0.000006 -0.000006 -0.021935 -0.177779 -23.840300
0.000000 0.000000 0.000000 0.000000 0.000000 -0.000000 0.145266 92.996500 -3.608550 82.237300 -15.415300 -8.041530 15.735700 0.000005 -0.000001 129.450000 80.479300 -129.037000 8.984550 -0.406207 -0.000000 7.011990 12.055000 0.086642 16.377300 -0.000001 -0.000001 6.421040 1.890010 0.130723 6.456720 -0.000001 -0.000000 -0.293421 -4.229070 -0.209608 12.994200 -0.242716 4.980390 -85.380200 -7.764120 -59.114100 5.348090 -0.000007 -0.000001 -68.905600 23.474300 18.368500 24.328600 0.000019 0.000005 -7.936080 -4.562570 -60.289600 22.291600 -0.000001 0.000005 -2.479850 5.596030 -11.108000 12.994500 -0.242716 -4.980390 90.812700 -2.215730 -69.852600 -5.348130 -0.000001 -0.000004 -42.847000 27.664900 -30.951500 -24.328900 0.000322 -0.000009 -11.258900 -5.071760 -66.051900 -22.291500 -0.000108 -0.000004 0.408525 5.545730 -8.506220 -2.192480 -6.469440 -0.000000 -174.927000 -11.550900 -24.408300 39.081100 -0.000007 -0.000012 -0.000616 0.007681 4.581680 40.985400 -0.000006 -0.000013 0.615230 -14.153600 -65.612400 11.754300 -0.000000 0.000003 -0.006209 -0.072729 -19.536900 -2.192510 6.469440 -0.000001 172.344000 11.137200 -170.698000 -39.081100 -0.002282 -0.040193 0.171749 -0.226016 36.699300 -40.985400 0.000008 0.000006 -3.235270 2.012960 -37.074000 -11.754300 -0.000006 -0.000006 -0.021671 -0.176373 -23.782300
0.000000 0.000000 0.000000 0.000000 0.000000 -0.000000 0.434693 91.044100 5.070250 84.012200 -14.805700 -7.061180 15.735700 0.000005 -0.000001 124.683000 80.696700 -124.955000 8.984550 -0.406207 -0.000000 7.657700 10.546300 -1.253760 16.377300 -0.000001 -0.000001 6.720280 2.024990 0.221292 6.456720 -0.000001 -0.000000 -0.870599 -3.991630 0.393840 12.994200 -0.242716 4.980390 -86.227200 -6.406280 -59.417700 5.348090 -0.000007 -0.000001 -66.797300 22.537300 15.799600 24.328600 0.000019 0.000005 -8.570040 -4.766140 -61.129800 22.291600 -0.000001 0.000005 -1.918390 5.597290 -11.181400 12.994500 -0.242716 -4.980390 90.480100 -1.344480 -70.348300 -5.348130 -0.000001 -0.000004 -45.088700 28.316600 -27.882800 -24.328900 0.000322 -0.000009 -10.005600 -5.032990 -63.557100 -22.291500 -0.000108 -0.000004 0.933670 5.547720 -8.599010 -2.192480 -6.469440 -0.000000 -178.978000 -14.054200 -32.343600 39.081100 -0.000007 -0.000012 0.191978 -0.470897 22.180300 40.985400 -0.000006 -0.000013 4.548960 -14.581600 -63.222400 11.754300 -0.000000 0.000003 -0.009101 -0.096802 -20.519900 -2.192510 6.469440 -0.000001 171.420000 7.763030 -171.292000 -39.081100 -0.002282 -0.040193 0.249229 -0.234482 46.369900 -40.985400 0.000008 0.000006 3.197520 -5.713170 -39.888400 -11.754300 -0.000006 -0.000006 -0.022084 -0.178568 -23.872900
0.000000 0.000000 0.000000 0.000000 0.000000 -0.000000 0.795936 88.230500 13.844900 87.715300 -12.884100 -5.383180 15.735700 0.000005 -0.000001 115.680000 80.725800 -117.127000 8.984550 -0.406207 -0.000000 9.119000 7.978360 -3.532810 16.377300 -0.000001 -0.000001 6.104510 1.440520 0.938148 6.456720 -0.000001 -0.000000 -2.168330 -3.518890 0.207555 12.994200 -0.242716 4.980390 -87.617800 -4.224050 -60.544000 5.348090 -0.000007 -0.000001 -62.755800 22.683600 11.513000 24.328600 0.000019 0.000005 -9.304780 -4.958080 -62.187800 22.291600 -0.000001 0.000005 -1.655060 5.599250 -11.297900 12.994500 -0.242716 -4.980390 89.913000 0.237235 -69.899400 -5.348130 -0.000001 -0.000004 -45.454900 29.300300 -24.580700 -24.328900 0.000322 -0.000009 -9.476180 -4.978170 -62.527400 -22.291500 -0.000108 -0.000004 0.863802 5.546150 -8.525350 -2.192480 -6.469440 -0.000000 177.660000 -12.208900 -36.457500 39.081100 -0.000007 -0.000012 -0.102911 0.128641 38.659900 40.985400 -0.000006 -0.000013 2.782360 -11.057500 -58.306900 11.754300 -0.000000 0.000003 -0.007613 -0.084850 -20.031600 -2.192510 6.469440 -0.000001 169.861000 5.048150 -173.679000 -39.081100 -0.002282 -0.040193 0.256101 -0.150980 59.162900 -40.985400 0.000008 0.000006 7.159910 -10.294300 -38.589500 -11.754300 -0.000006 -0.000006 -0.020311 -0.169008 -23.478700
